{"title":"Danny Deckchair 2003 480p HDRip XviD titler","uid":9825924,"size":1283374006,"categoryP":"video","categoryS":"movies","magnet":"?xt=urn:btih:da711ca396aeff82dd65798bcb04eb6dbdf6ff8f&amp;dn=Danny+Deckchair+2003+480p+HDRip+XviD+titler&amp;tr=udp%3A%2F%2Ftracker.openbittorrent.com%3A80&amp;tr=udp%3A%2F%2Fopen.demonii.com%3A1337&amp;tr=udp%3A%2F%2Ftracker.coppersurfer.tk%3A6969&amp;tr=udp%3A%2F%2Fexodus.desync.com%3A6969","seeders":0,"leechers":1,"uploader":"movieZ.freak","files":4,"time":1395777275,"description":"SOURCE: Danny Deckchair 2003 720p HDTV x264 - DON\n\n\n &lt;a href=&quot;\nhttp://www.imdb.com/title/tt0337960/&quot; rel=&quot;nofollow&quot; target=&quot;_NEW&quot;&gt;\nhttp://www.imdb.com/title/tt0337960/&lt;/a&gt;\n\n\n &lt;a href=&quot;\nhttp://www.rottentomatoes.com/m/danny_deckchair/&quot; rel=&quot;nofollow&quot; target=&quot;_NEW&quot;&gt;\nhttp://www.rottentomatoes.com/m/danny_deckchair/&lt;/a&gt;\n\n\n &lt;a href=&quot;\nhttp://en.wikipedia.org/wiki/Danny_Deckchair&quot; rel=&quot;nofollow&quot; target=&quot;_NEW&quot;&gt;\nhttp://en.wikipedia.org/wiki/Danny_Deckchair&lt;/a&gt;\n\n\n\n- SAMPLE: Yes\n\n\n- SUBTITLE: English\n\n\n- LANGUAGE / AUDIO: English\n\n\n\n\nSCREENSHOTS:\n-------------------    &lt;a href=&quot;\nhttp://someimage.com/7nu2&quot; rel=&quot;nofollow&quot; target=&quot;_NEW&quot;&gt;\nhttp://someimage.com/7nu2&lt;/a&gt;\n\n\n\nDIRECTOR: Jeff Balsmeyer\n\n\n\nCAST: Rhys Ifans, Miranda Otto, Justine Clarke, Rhys Muldoon, John Batchelor,...\n\n\n\nPLOT:\n-----------\nBased on a true story, the tale of a cement truck driver named Danny, whose long awaited vacation is cancelled thanks to his scheming girlfriend, Trudy. Danny escapes his grim life in suburban Australia and blasts into the skies in a chair tied with helium balloons. A mighty thunderstorm blows him clean off the map, and spits him out far away over the lush green town of Clarence. In this new town, he rockets into the world of Glenda, the town's only parking cop. While the media back home becomes obsessed with the story of his disappearance, Danny gets to reinvent himself in this new town, and in his great adventure, he discovers a true soulmate in Glenda. Fate catches up with him eventually, as Danny's true identity is revealed and Trudy, now a tabloid celebrity comes to the idyllic town to claim Danny and drag him back to Sydney. Danny, however, is a changed man; he's discovered what it means to be happy and has found a new self-worth. Saying farewell to Trudy, Danny makes a dynamic...\n\n\n************************************\n\n- Duration: 1h 40mn\n\n- Bit rate: 1549 Kbps\n\n- Res: 854 x 478\n\n- AR: 23.976 fps\n\n- FPS: 16:9\n\n- Audio: AC3, 2 channels, 128Kbps\n\n************************************\n\n\nGeneral\n-------------\nFormat : AVI\nFormat/Info : Audio Video Interleave\nFile size : 1.18 GiB\nDuration : 1h 40mn\nOverall bit rate : 1686 Kbps\nWriting library : VirtualDub build 35491\n\n\nVideo\n----------\nFormat : MPEG-4 Visual\nFormat profile : Advanced Simple@L5\nFormat settings, BVOP : 2\nFormat settings, QPel : No\nFormat settings, GMC : No warppoints\nFormat settings, Matrix : Default (H.263)\nCodec ID : XVID\nCodec ID/Hint : XviD\nDuration : 1h 40mn\nBit rate : 1549 Kbps\nWidth : 854 pixels\nHeight : 478 pixels\nDisplay aspect ratio : 16:9\nFrame rate : 23.976 fps\nColor space : YUV\nChroma subsampling : 4:2:0\nBit depth : 8 bits\nScan type : Progressive\nCompression mode : Lossy\nBits/(Pixel*Frame) : 0.158\nStream size : 1.09 GiB (92%)\nWriting library : XviD 65\n\n\nAudio\n---------\nFormat : AC-3\nFormat/Info : Audio Coding 3\nMode extension : CM (complete main)\nFormat settings, Endianness : Big\nCodec ID : 2000\nDuration : 1h 40mn\nBit rate mode : Constant\nBit rate : 128 Kbps\nChannel(s) : 2 channels\nChannel positions : Front: L R\nSampling rate : 48.0 KHz\nBit depth : 16 bits\nCompression mode : Lossy\nStream size : 91.8 MiB (8%)\nAlignment : Aligned on interleaves\nInterleave, duration : 42 ms (1.00 video frame)\nInterleave, preload duration : 512 ms","torrent":{"xt":"urn:btih:da711ca396aeff82dd65798bcb04eb6dbdf6ff8f","amp;dn":"Danny+Deckchair+2003+480p+HDRip+XviD+titler","amp;tr":["udp%3A%2F%2Ftracker.openbittorrent.com%3A80","udp%3A%2F%2Fopen.demonii.com%3A1337","udp%3A%2F%2Ftracker.coppersurfer.tk%3A6969","udp%3A%2F%2Fexodus.desync.com%3A6969"],"infoHash":"da711ca396aeff82dd65798bcb04eb6dbdf6ff8f","infoHashBuffer":{"type":"Buffer","data":[218,113,28,163,150,174,255,130,221,101,121,139,203,4,235,109,189,246,255,143]},"announce":[],"urlList":[]}}